<?xml version="1.0" standalone="no"?>
<!DOCTYPE svg PUBLIC "-//W3C//DTD SVG 20010904//EN"
 "http://www.w3.org/TR/2001/REC-SVG-20010904/DTD/svg10.dtd">
<svg version="1.0" xmlns="http://www.w3.org/2000/svg"
 width="700.000000pt" height="700.000000pt" viewBox="0 0 700.000000 700.000000"
 preserveAspectRatio="xMidYMid meet">
<metadata>
Created by potrace 1.14, written by Peter Selinger 2001-2017
</metadata>
<g transform="translate(0.000000,700.000000) scale(0.100000,-0.100000)"
fill="#000000" stroke="none">
<path d="M3350 6804 c-712 -39 -1376 -290 -1925 -730 -141 -113 -386 -358
-499 -499 -185 -231 -372 -547 -482 -810 -117 -283 -198 -604 -235 -935 -15
-135 -15 -513 0 -655 58 -547 239 -1053 534 -1497 722 -1086 1988 -1644 3275
-1442 464 72 913 247 1304 507 200 133 339 247 513 422 281 280 470 547 645
907 365 755 426 1629 170 2433 -118 371 -328 760 -576 1070 -114 142 -359 387
-499 499 -510 406 -1104 651 -1740 715 -114 12 -389 20 -485 15z m-387 -2889
c332 -862 527 -1360 536 -1360 8 0 207 500 540 1360 l527 1360 287 3 287 2 0
-1655 0 -1655 -190 0 -190 0 0 1218 c0 1089 6 1468 26 1656 5 44 3 57 -6 54
-9 -3 -728 -1844 -1116 -2861 l-26 -67 -156 0 -157 0 -560 1465 c-308 806
-565 1465 -570 1465 -7 0 -8 -32 -3 -92 17 -226 28 -888 28 -1825 l0 -1013
-180 0 -180 0 0 1655 0 1655 291 -2 290 -3 522 -1360z"/>
</g>
</svg>
